<svg width="80" height="50" viewBox="0 0 80 50" fill="none" xmlns="http://www.w3.org/2000/svg">
<rect width="80" height="50" fill="#C4C4C4"/>
<path d="M8.2168 16.7578H11.8105L19.9062 26.6895V19.0527C19.9062 18.2389 19.8151 17.7311 19.6328 17.5293C19.3919 17.2559 19.0111 17.1191 18.4902 17.1191H18.0312V16.7578H22.6406V17.1191H22.1719C21.612 17.1191 21.2148 17.2884 20.9805 17.627C20.8372 17.8353 20.7656 18.3105 20.7656 19.0527V30.2148H20.4141L11.6836 19.5508V27.7051C11.6836 28.5189 11.7715 29.0267 11.9473 29.2285C12.1947 29.502 12.5755 29.6387 13.0898 29.6387H13.5586V30H8.94922V29.6387H9.4082C9.97461 29.6387 10.375 29.4694 10.6094 29.1309C10.7526 28.9225 10.8242 28.4473 10.8242 27.7051V18.4961C10.4401 18.0469 10.1471 17.7507 9.94531 17.6074C9.75 17.4642 9.46029 17.3307 9.07617 17.207C8.88737 17.1484 8.60091 17.1191 8.2168 17.1191V16.7578ZM27.9336 20.791C29.2878 20.791 30.375 21.3053 31.1953 22.334C31.8919 23.2129 32.2402 24.222 32.2402 25.3613C32.2402 26.1621 32.0482 26.9727 31.6641 27.793C31.2799 28.6133 30.7493 29.2318 30.0723 29.6484C29.4017 30.0651 28.653 30.2734 27.8262 30.2734C26.4785 30.2734 25.4076 29.7363 24.6133 28.6621C23.9427 27.7572 23.6074 26.7415 23.6074 25.6152C23.6074 24.7949 23.8092 23.9811 24.2129 23.1738C24.623 22.36 25.1602 21.7611 25.8242 21.377C26.4883 20.9863 27.1914 20.791 27.9336 20.791ZM27.6309 21.4258C27.2858 21.4258 26.9375 21.5299 26.5859 21.7383C26.2409 21.9401 25.9609 22.2982 25.7461 22.8125C25.5312 23.3268 25.4238 23.9876 25.4238 24.7949C25.4238 26.097 25.681 27.2201 26.1953 28.1641C26.7161 29.1081 27.3997 29.5801 28.2461 29.5801C28.8776 29.5801 29.3984 29.3197 29.8086 28.7988C30.2188 28.278 30.4238 27.3828 30.4238 26.1133C30.4238 24.5247 30.082 23.2747 29.3984 22.3633C28.9362 21.7383 28.347 21.4258 27.6309 21.4258ZM42.0254 17.4805V22.6855H44.4375C44.9909 22.6855 45.3945 22.5651 45.6484 22.3242C45.9089 22.0768 46.0814 21.5918 46.166 20.8691H46.5273V25.3516H46.166C46.1595 24.8372 46.0911 24.4596 45.9609 24.2188C45.8372 23.9779 45.6615 23.7988 45.4336 23.6816C45.2122 23.5579 44.8802 23.4961 44.4375 23.4961H42.0254V27.6562C42.0254 28.3268 42.0677 28.7695 42.1523 28.9844C42.2174 29.1471 42.3542 29.2871 42.5625 29.4043C42.849 29.5605 43.1484 29.6387 43.4609 29.6387H43.9395V30H38.2559V29.6387H38.7246C39.2715 29.6387 39.6686 29.4792 39.916 29.1602C40.0723 28.9518 40.1504 28.4505 40.1504 27.6562V19.1016C40.1504 18.431 40.1081 17.9883 40.0234 17.7734C39.9583 17.6107 39.8249 17.4707 39.623 17.3535C39.3431 17.1973 39.0436 17.1191 38.7246 17.1191H38.2559V16.7578H48.1094L48.2363 19.668H47.8945C47.7253 19.0495 47.5267 18.597 47.2988 18.3105C47.0775 18.0176 46.8008 17.806 46.4688 17.6758C46.1432 17.5456 45.6354 17.4805 44.9453 17.4805H42.0254ZM52.7676 16.1133V27.9785C52.7676 28.5384 52.8066 28.9095 52.8848 29.0918C52.9694 29.2741 53.0964 29.4141 53.2656 29.5117C53.4349 29.6029 53.7507 29.6484 54.2129 29.6484V30H49.8281V29.6484C50.2383 29.6484 50.5182 29.6061 50.668 29.5215C50.8177 29.4368 50.9349 29.2969 51.0195 29.1016C51.1042 28.9062 51.1465 28.5319 51.1465 27.9785V19.8535C51.1465 18.8444 51.1237 18.2259 51.0781 17.998C51.0326 17.7637 50.9577 17.6042 50.8535 17.5195C50.7559 17.4349 50.6289 17.3926 50.4727 17.3926C50.3034 17.3926 50.0885 17.4447 49.8281 17.5488L49.6621 17.207L52.3281 16.1133H52.7676ZM60.3262 28.7109C59.4082 29.4206 58.832 29.8307 58.5977 29.9414C58.2461 30.1042 57.8717 30.1855 57.4746 30.1855C56.8561 30.1855 56.3451 29.974 55.9414 29.5508C55.5443 29.1276 55.3457 28.571 55.3457 27.8809C55.3457 27.4447 55.4434 27.0671 55.6387 26.748C55.9056 26.3053 56.3678 25.8887 57.0254 25.498C57.6895 25.1074 58.7897 24.6322 60.3262 24.0723V23.7207C60.3262 22.8288 60.1829 22.2168 59.8965 21.8848C59.6165 21.5527 59.2064 21.3867 58.666 21.3867C58.2559 21.3867 57.9303 21.4974 57.6895 21.7188C57.4421 21.9401 57.3184 22.194 57.3184 22.4805L57.3379 23.0469C57.3379 23.3464 57.2598 23.5775 57.1035 23.7402C56.9538 23.903 56.7552 23.9844 56.5078 23.9844C56.2669 23.9844 56.0684 23.8997 55.9121 23.7305C55.7624 23.5612 55.6875 23.3301 55.6875 23.0371C55.6875 22.4772 55.974 21.9629 56.5469 21.4941C57.1198 21.0254 57.9238 20.791 58.959 20.791C59.7533 20.791 60.4043 20.9245 60.9121 21.1914C61.2962 21.3932 61.5794 21.709 61.7617 22.1387C61.8789 22.4186 61.9375 22.9915 61.9375 23.8574V26.8945C61.9375 27.7474 61.9538 28.2715 61.9863 28.4668C62.0189 28.6556 62.071 28.7826 62.1426 28.8477C62.2207 28.9128 62.3086 28.9453 62.4062 28.9453C62.5104 28.9453 62.6016 28.9225 62.6797 28.877C62.8164 28.7923 63.0801 28.5547 63.4707 28.1641V28.7109C62.7415 29.6875 62.0449 30.1758 61.3809 30.1758C61.0618 30.1758 60.8079 30.0651 60.6191 29.8438C60.4303 29.6224 60.3327 29.2448 60.3262 28.7109ZM60.3262 28.0762V24.668C59.3431 25.0586 58.7083 25.3353 58.4219 25.498C57.9076 25.7845 57.5397 26.084 57.3184 26.3965C57.097 26.709 56.9863 27.0508 56.9863 27.4219C56.9863 27.8906 57.1263 28.2812 57.4062 28.5938C57.6862 28.8997 58.0085 29.0527 58.373 29.0527C58.8678 29.0527 59.5189 28.7272 60.3262 28.0762ZM66.5371 26.7383C65.9902 26.4714 65.5703 26.1003 65.2773 25.625C64.9844 25.1432 64.8379 24.6126 64.8379 24.0332C64.8379 23.1478 65.1699 22.3861 65.834 21.748C66.5046 21.11 67.3607 20.791 68.4023 20.791C69.2552 20.791 69.9941 20.9993 70.6191 21.416H72.5137C72.7936 21.416 72.9564 21.4258 73.002 21.4453C73.0475 21.4583 73.0801 21.4844 73.0996 21.5234C73.1387 21.582 73.1582 21.6862 73.1582 21.8359C73.1582 22.0052 73.1419 22.1224 73.1094 22.1875C73.0898 22.2201 73.054 22.2461 73.002 22.2656C72.9564 22.2852 72.7936 22.2949 72.5137 22.2949H71.3516C71.7161 22.7637 71.8984 23.3626 71.8984 24.0918C71.8984 24.9251 71.5794 25.638 70.9414 26.2305C70.3034 26.8229 69.4473 27.1191 68.373 27.1191C67.9303 27.1191 67.4779 27.054 67.0156 26.9238C66.7292 27.1712 66.5339 27.3893 66.4297 27.5781C66.332 27.7604 66.2832 27.9167 66.2832 28.0469C66.2832 28.1576 66.3353 28.265 66.4395 28.3691C66.5501 28.4733 66.7617 28.5482 67.0742 28.5938C67.2565 28.6198 67.7122 28.6426 68.4414 28.6621C69.7826 28.6947 70.6517 28.7402 71.0488 28.7988C71.6543 28.8835 72.1361 29.1081 72.4941 29.4727C72.8587 29.8372 73.041 30.2865 73.041 30.8203C73.041 31.556 72.696 32.2461 72.0059 32.8906C70.9902 33.8411 69.6654 34.3164 68.0312 34.3164C66.7747 34.3164 65.7135 34.0332 64.8477 33.4668C64.3594 33.1413 64.1152 32.8027 64.1152 32.4512C64.1152 32.2949 64.151 32.1387 64.2227 31.9824C64.3333 31.7415 64.5612 31.4062 64.9062 30.9766C64.9518 30.918 65.2839 30.5664 65.9023 29.9219C65.5638 29.7201 65.3229 29.541 65.1797 29.3848C65.043 29.222 64.9746 29.0397 64.9746 28.8379C64.9746 28.61 65.0658 28.3431 65.248 28.0371C65.4368 27.7311 65.8665 27.2982 66.5371 26.7383ZM68.2363 21.2598C67.7546 21.2598 67.3509 21.4518 67.0254 21.8359C66.6999 22.2201 66.5371 22.8092 66.5371 23.6035C66.5371 24.6322 66.7585 25.4297 67.2012 25.9961C67.5397 26.4258 67.9694 26.6406 68.4902 26.6406C68.985 26.6406 69.3919 26.4551 69.7109 26.084C70.0299 25.7129 70.1895 25.1302 70.1895 24.3359C70.1895 23.3008 69.9648 22.4902 69.5156 21.9043C69.1836 21.4746 68.7572 21.2598 68.2363 21.2598ZM66.4395 30C66.1335 30.332 65.9023 30.6413 65.7461 30.9277C65.5898 31.2142 65.5117 31.4779 65.5117 31.7188C65.5117 32.0312 65.7005 32.3047 66.0781 32.5391C66.7292 32.9427 67.6699 33.1445 68.9004 33.1445C70.0723 33.1445 70.9349 32.9362 71.4883 32.5195C72.0482 32.1094 72.3281 31.6699 72.3281 31.2012C72.3281 30.8626 72.1621 30.6217 71.8301 30.4785C71.4915 30.3353 70.821 30.2507 69.8184 30.2246C68.3535 30.1855 67.2272 30.1107 66.4395 30Z" fill="black"/>
</svg>